<svg width="48" height="48" viewBox="0 0 48 48" fill="none" xmlns="http://www.w3.org/2000/svg">
<path d="M23.4157 43.1703C36.3479 43.1703 46.8315 40.9544 46.8315 38.2209C46.8315 35.4874 36.3479 33.2715 23.4157 33.2715C10.4836 33.2715 0 35.4874 0 38.2209C0 40.9544 10.4836 43.1703 23.4157 43.1703Z" fill="#F6F6F8"/>
<path fill-rule="evenodd" clip-rule="evenodd" d="M11.9535 15.7832H34.9305L42.4114 25.1871H4.47266L11.9535 15.7832Z" fill="#B7DEB3"/>
<path d="M35.5445 0H11.3395C10.7583 0 10.2871 0.492427 10.2871 1.09987V28.5965C10.2871 29.204 10.7583 29.6964 11.3395 29.6964H35.5445C36.1258 29.6964 36.5969 29.204 36.5969 28.5965V1.09987C36.5969 0.492427 36.1258 0 35.5445 0Z" fill="#EDFFEB"/>
<path d="M31.8348 3.29883H14.9965C14.4153 3.29883 13.9441 3.79126 13.9441 4.39869V13.1976C13.9441 13.8051 14.4153 14.2975 14.9965 14.2975H31.8348C32.416 14.2975 32.8872 13.8051 32.8872 13.1976V4.39869C32.8872 3.79126 32.416 3.29883 31.8348 3.29883Z" fill="#D4F3D2"/>
<path d="M32.0979 17.5625H14.7334C14.2975 17.5625 13.9441 17.9318 13.9441 18.3874C13.9441 18.843 14.2975 19.2123 14.7334 19.2123H32.0979C32.5338 19.2123 32.8872 18.843 32.8872 18.3874C32.8872 17.9318 32.5338 17.5625 32.0979 17.5625Z" fill="#D4F3D2"/>
<path d="M32.0979 22.1152H14.7334C14.2975 22.1152 13.9441 22.4846 13.9441 22.9401C13.9441 23.3957 14.2975 23.765 14.7334 23.765H32.0979C32.5338 23.765 32.8872 23.3957 32.8872 22.9401C32.8872 22.4846 32.5338 22.1152 32.0979 22.1152Z" fill="#D4F3D2"/>
<path d="M31.2487 26.2977V26.9477C31.2492 28.1625 30.3073 29.1474 29.1455 29.1474H17.6276L17.5223 29.1447C16.4089 29.088 15.5228 28.1262 15.5228 26.9477V26.2971C15.5228 25.69 15.0518 25.1973 14.4704 25.1973L4.47266 25.1978V37.2964C4.47266 38.5112 5.41507 39.4961 6.57744 39.4961H40.3066C41.469 39.4961 42.4114 38.5112 42.4114 37.2964V25.1978L32.3016 25.1973C31.7202 25.1973 31.2487 25.6906 31.2487 26.2977Z" fill="#DEF3DD"/>
</svg>
