<svg width="34" height="34" viewBox="0 0 34 34" fill="none" xmlns="http://www.w3.org/2000/svg">
<rect x="0.5" y="0.5" width="33" height="33" rx="5.5" fill="#EDFAF5"/>
<rect x="0.5" y="0.5" width="33" height="33" rx="5.5" stroke="#CEF0E2"/>
<path fill-rule="evenodd" clip-rule="evenodd" d="M10.2708 11.334C10.2708 10.7472 10.7464 10.2715 11.3333 10.2715H22.6666C23.2534 10.2715 23.7291 10.7472 23.7291 11.334V13.6187C23.7291 13.982 23.5435 14.3201 23.237 14.5151L19.8333 16.6812V23.3757H18.4166V16.4867C18.4166 16.1235 18.6022 15.7854 18.9087 15.5903L22.3124 13.4243V11.6882H11.6874V13.4243L15.0912 15.5903C15.3977 15.7854 15.5833 16.1235 15.5833 16.4867V21.6048H14.1666V16.6812L10.7628 14.5151C10.4563 14.3201 10.2708 13.982 10.2708 13.6187V11.334Z" fill="#37AE7E"/>
</svg>
