<svg width="20" height="20" viewBox="0 0 20 20" fill="none" xmlns="http://www.w3.org/2000/svg">
<path d="M5.61816 6.2359C5.61816 6.81551 5.73315 7.38944 5.95655 7.92493C6.17996 8.46041 6.50741 8.94697 6.92021 9.35681C7.33301 9.76666 7.82307 10.0918 8.36242 10.3136C8.90176 10.5354 9.47983 10.6495 10.0636 10.6495C10.6474 10.6495 11.2255 10.5354 11.7648 10.3136C12.3042 10.0918 12.7942 9.76666 13.207 9.35681C13.6198 8.94697 13.9473 8.46041 14.1707 7.92493C14.3941 7.38944 14.5091 6.81551 14.5091 6.2359C14.5091 5.6563 14.3941 5.08236 14.1707 4.54688C13.9473 4.01139 13.6198 3.52483 13.207 3.11499C12.7942 2.70515 12.3042 2.38004 11.7648 2.15823C11.2255 1.93643 10.6474 1.82227 10.0636 1.82227C9.47983 1.82227 8.90176 1.93643 8.36242 2.15823C7.82307 2.38004 7.33301 2.70515 6.92021 3.11499C6.50741 3.52483 6.17996 4.01139 5.95655 4.54688C5.73315 5.08236 5.61816 5.6563 5.61816 6.2359Z" fill="#62687D"/>
<path d="M5.68182 11.6953H14.3182C16.4394 11.6953 17.5 12.7559 17.5 14.8771V15.0089C17.5 17.1302 16.4394 18.1908 14.3182 18.1908H5.68182C3.56061 18.1908 2.5 17.1302 2.5 15.0089V14.8771C2.5 12.7559 3.56061 11.6953 5.68182 11.6953Z" fill="#62687D"/>
</svg>
