<svg width="20" height="20" viewBox="0 0 20 20" fill="none" xmlns="http://www.w3.org/2000/svg">
<path d="M5.25002 7.72754H14.75C16.4318 7.72754 17.2727 8.56845 17.2727 10.2503V16.1139C17.2727 17.7957 16.4318 18.6366 14.75 18.6366H5.25002C3.5682 18.6366 2.72729 17.7957 2.72729 16.1139V10.2503C2.72729 8.56845 3.5682 7.72754 5.25002 7.72754Z" fill="#62687D"/>
<path d="M14.5455 8.18146H13.1819V5.62692C13.1819 4.02692 11.7546 2.72692 10 2.72692C8.2455 2.72692 6.81823 4.02692 6.81823 5.62692V8.18146H5.45459V5.62692C5.45459 3.27692 7.4955 1.36328 10 1.36328C12.5046 1.36328 14.5455 3.27692 14.5455 5.62692V8.18146Z" fill="#62687D"/>
</svg>
